<?xml version="1.0" encoding="utf-8"?>
<!-- Generator: Adobe Illustrator 22.0.0, SVG Export Plug-In . SVG Version: 6.00 Build 0)  -->
<svg version="1.1" id="Capa_1" xmlns="http://www.w3.org/2000/svg" xmlns:xlink="http://www.w3.org/1999/xlink" x="0px" y="0px"
	 viewBox="0 0 104 104" style="enable-background:new 0 0 104 104;" xml:space="preserve">
<style type="text/css">
	.st0{display:none;}
	.st1{display:inline;}
	.st2{fill:#3DE200;}
	.st3{fill:#22263D;}
	.st4{fill:none;stroke:#3DE200;stroke-width:6;stroke-linecap:round;stroke-linejoin:round;stroke-miterlimit:10;}
	.st5{fill:none;stroke:#22263D;stroke-width:6;stroke-linecap:round;stroke-linejoin:round;stroke-miterlimit:10;}
	.st6{fill:none;stroke:#222221;stroke-width:20;stroke-miterlimit:10;}
	.st7{fill:none;stroke:#49F900;stroke-width:6;stroke-miterlimit:10;}
	.st8{fill:none;stroke:#222221;stroke-width:6;stroke-miterlimit:10;}
	.st9{fill:#49F900;}
	.st10{fill:none;stroke:#222221;stroke-linecap:round;stroke-linejoin:round;stroke-miterlimit:10;}
	.st11{fill:#222221;}
</style>
<title>icon1</title>
<desc>Created with Sketch.</desc>
<g class="st0">
	<g class="st1">
		<circle class="st2" cx="52" cy="18.7" r="18.7"/>
		<g>
			<path class="st3" d="M11.3,85.5c4,0,7.3,3.3,7.3,7.3s-3.3,7.3-7.3,7.3S4,96.7,4,92.7S7.3,85.5,11.3,85.5 M11.3,81.5
				C5,81.5,0,86.5,0,92.7C0,99,5,104,11.3,104s11.3-5,11.3-11.3C22.5,86.5,17.5,81.5,11.3,81.5L11.3,81.5z"/>
		</g>
		<g>
			<path class="st3" d="M92.7,85.5c4,0,7.3,3.3,7.3,7.3s-3.3,7.3-7.3,7.3s-7.3-3.3-7.3-7.3S88.7,85.5,92.7,85.5 M92.7,81.5
				c-6.2,0-11.3,5-11.3,11.3c0,6.2,5,11.3,11.3,11.3S104,99,104,92.7C104,86.5,99,81.5,92.7,81.5L92.7,81.5z"/>
		</g>
		<line class="st4" x1="52" y1="54.7" x2="52" y2="41.7"/>
		<g>
			<path class="st3" d="M52,85.5c4,0,7.3,3.3,7.3,7.3S56,100,52,100s-7.3-3.3-7.3-7.3S48,85.5,52,85.5 M52,81.5
				c-6.2,0-11.3,5-11.3,11.3c0,6.2,5,11.3,11.3,11.3s11.3-5,11.3-11.3C63.3,86.5,58.2,81.5,52,81.5L52,81.5z"/>
		</g>
		<polyline class="st5" points="11.3,76.7 11.3,54.7 92.7,54.7 92.7,76.7 		"/>
		<line class="st5" x1="52" y1="54.7" x2="52" y2="76.7"/>
	</g>
</g>
<g>
	<path class="st6" d="M52.1,12.8"/>
	<g>
		<path class="st7" d="M11,48.9c1-7.5,3.9-14.4,8.3-20.1"/>
		<path class="st7" d="M19.2,79.4C14.9,73.8,11.9,67,11,59.5"/>
		<path class="st7" d="M47,95.3c-7.4-0.9-14.2-3.8-19.9-8.1"/>
		<path class="st7" d="M77.5,86.9c-5.8,4.5-12.8,7.5-20.4,8.4"/>
		<path class="st7" d="M93.1,59.9c-1,7.3-3.9,14-8.2,19.6"/>
		<path class="st7" d="M85.2,29.3c4.2,5.6,7,12.2,7.9,19.5"/>
		<path class="st7" d="M63.1,14.2c5.2,1.4,10.1,3.9,14.2,7.1"/>
		<path class="st7" d="M27.1,21.1c4.1-3.1,8.9-5.5,14-6.9"/>
	</g>
	<g>
		<ellipse class="st8" cx="81.3" cy="24.9" rx="5.4" ry="5.4"/>
		<ellipse class="st8" cx="93.4" cy="54.2" rx="5.4" ry="5.4"/>
		<ellipse class="st8" cx="81.3" cy="83.5" rx="5.4" ry="5.4"/>
		<ellipse class="st8" cx="52" cy="95.6" rx="5.4" ry="5.4"/>
		<ellipse class="st8" cx="22.7" cy="83.5" rx="5.4" ry="5.4"/>
		<ellipse class="st8" cx="10.6" cy="54.2" rx="5.4" ry="5.4"/>
		<ellipse class="st8" cx="22.7" cy="24.9" rx="5.4" ry="5.4"/>
	</g>
	<ellipse class="st9" cx="52.1" cy="12.8" rx="12.4" ry="12.4"/>
	<path class="st10" d="M57.9,15c-0.8,2.1-3.1,3.6-5.8,3.6c-2.7,0-5-1.5-5.8-3.6"/>
	<g>
		<path class="st11" d="M48.9,12.1h-0.2c-0.5,0-0.8-0.4-0.8-0.8V9.6c0-0.5,0.4-0.8,0.8-0.8h0.2c0.5,0,0.8,0.4,0.8,0.8v1.6
			C49.7,11.7,49.3,12.1,48.9,12.1z"/>
		<path class="st11" d="M55.5,12.1h-0.2c-0.5,0-0.8-0.4-0.8-0.8V9.6c0-0.5,0.4-0.8,0.8-0.8h0.2c0.5,0,0.8,0.4,0.8,0.8v1.6
			C56.3,11.7,56,12.1,55.5,12.1z"/>
	</g>
</g>
</svg>
