<?xml version="1.0" encoding="utf-8"?>
<!-- Generator: Adobe Illustrator 22.0.0, SVG Export Plug-In . SVG Version: 6.00 Build 0)  -->
<svg version="1.1" id="Capa_1" xmlns="http://www.w3.org/2000/svg" xmlns:xlink="http://www.w3.org/1999/xlink" x="0px" y="0px"
	 viewBox="0 0 104 104" style="enable-background:new 0 0 104 104;" xml:space="preserve">
<style type="text/css">
	.st0{fill:#3DE200;}
	.st1{fill:#22263D;}
	.st2{fill:none;stroke:#3DE200;stroke-width:6;stroke-linecap:round;stroke-linejoin:round;stroke-miterlimit:10;}
	.st3{fill:none;stroke:#22263D;stroke-width:6;stroke-linecap:round;stroke-linejoin:round;stroke-miterlimit:10;}
</style>
<title>icon1</title>
<desc>Created with Sketch.</desc>
<g>
	<g>
		<circle class="st0" cx="52" cy="18.7" r="18.7"/>
		<g>
			<path class="st1" d="M11.3,85.5c4,0,7.3,3.3,7.3,7.3s-3.3,7.3-7.3,7.3S4,96.7,4,92.7S7.3,85.5,11.3,85.5 M11.3,81.5
				C5,81.5,0,86.5,0,92.7C0,99,5,104,11.3,104s11.3-5,11.3-11.3C22.5,86.5,17.5,81.5,11.3,81.5L11.3,81.5z"/>
		</g>
		<g>
			<path class="st1" d="M92.7,85.5c4,0,7.3,3.3,7.3,7.3s-3.3,7.3-7.3,7.3s-7.3-3.3-7.3-7.3S88.7,85.5,92.7,85.5 M92.7,81.5
				c-6.2,0-11.3,5-11.3,11.3c0,6.2,5,11.3,11.3,11.3S104,99,104,92.7C104,86.5,99,81.5,92.7,81.5L92.7,81.5z"/>
		</g>
		<line class="st2" x1="52" y1="54.7" x2="52" y2="41.7"/>
		<g>
			<path class="st1" d="M52,85.5c4,0,7.3,3.3,7.3,7.3S56,100,52,100s-7.3-3.3-7.3-7.3S48,85.5,52,85.5 M52,81.5
				c-6.2,0-11.3,5-11.3,11.3c0,6.2,5,11.3,11.3,11.3s11.3-5,11.3-11.3C63.3,86.5,58.2,81.5,52,81.5L52,81.5z"/>
		</g>
		<polyline class="st3" points="11.3,76.7 11.3,54.7 92.7,54.7 92.7,76.7 		"/>
		<line class="st3" x1="52" y1="54.7" x2="52" y2="76.7"/>
	</g>
</g>
</svg>
